<svg xmlns="http://www.w3.org/2000/svg" viewBox="0 0 256 320" class="icon desktop" aria-role="img"><path d="M235.52 3.635H20.48c-8.473.026-15.335 6.887-15.36 15.36v179.2c.026 8.474 6.886 15.334 15.36 15.36h65.971v28.57H71.68v10.24h112.64v-10.24h-14.771v-28.57h65.971c8.474-.025 15.334-6.887 15.36-15.36v-179.2c-.025-8.499-6.887-15.335-15.36-15.36zm-76.211 238.49H96.691v-28.57h62.643v28.57zm81.331-43.93c0 1.408-.563 2.662-1.511 3.609s-2.202 1.511-3.609 1.511H20.48c-1.408 0-2.663-.563-3.61-1.511s-1.511-2.202-1.511-3.609v-179.2c0-1.408.563-2.663 1.511-3.61s2.201-1.511 3.61-1.511h215.04c1.408 0 2.662.563 3.609 1.511s1.511 2.201 1.511 3.61v179.2z"/><path d="M25.6 24.32h204.8v154.035H25.6V24.32z"/></svg>