<svg xmlns="http://www.w3.org/2000/svg" viewBox="0 0 347.92 345" aria-labeledby="github-logo" aria-role="img"><title id="github-logo">Fork and contribute on Github</title><path d="M174.49 13.73a159 159 0 0 0-50.26 309.92c8 1.46 10.86-3.45 10.86-7.66 0-3.78-.14-13.78-.22-27.05-44.23 9.61-53.57-21.32-53.57-21.32-7.23-18.37-17.65-23.26-17.65-23.26-14.44-9.87 1.09-9.67 1.09-9.67 16 1.13 24.36 16.39 24.36 16.39 14.18 24.3 37.22 17.29 46.28 13.22 1.44-10.3 5.55-17.3 10.09-21.3C110.16 239 73 225.38 73 164.44c0-17.36 6.19-31.56 16.37-42.67-1.64-4-7.1-20.19 1.56-42.09 0 0 13.35-4.27 43.73 16.3a150.79 150.79 0 0 1 79.62 0c30.4-20.57 43.72-16.3 43.72-16.3 8.67 21.9 3.22 38.06 1.58 42.09 10.19 11.11 16.35 25.31 16.35 42.67 0 61.09-37.18 74.53-72.61 78.47 5.71 4.91 10.8 14.62 10.8 29.45 0 21.26-.2 38.41-.2 43.63 0 4.25 2.86 9.2 10.94 7.64a159 159 0 0 0-50.38-309.9z" fill="#181616" fill-rule="evenodd"/></svg>