<svg xmlns="http://www.w3.org/2000/svg" viewBox="0 0 100 125" class="icon password-manager" aria-role="img"><path d="M50.2 4.9h-.9c-12.1.4-21.4 10.7-21.4 22.8v7.2h-.5c-3.3 0-5.9 2.6-5.9 5.9v27.3c0 3.3 2.6 5.9 5.9 5.9h45.3c3.3 0 5.9-2.6 5.9-5.9V40.8c0-3.3-2.6-5.9-5.9-5.9h-.2v-7.8c0-12.2-10-22.2-22.3-22.2zm4.2 56.4c.1.7-.4 1.3-1.1 1.3h-6.6c-.7 0-1.2-.6-1.1-1.3l1.3-6.2c-1.2-1.1-2-2.7-1.7-4.5.3-2.1 2.1-3.8 4.2-4.1h.6c2.7 0 4.9 2.2 4.9 4.9 0 1.5-.7 2.9-1.8 3.8l1.3 6.1zm8.3-26.4H37.6v-7.4c0-6.5 4.8-12.3 11.3-12.9.4 0 .8-.1 1.2-.1 6.9 0 12.6 5.6 12.6 12.6v7.8zM22.5 89.1c.5-.3 1-.5 1.4-.6-.2 0-.5-.1-.7-.2-.2-.1-.5-.2-.7-.4l-2.7-1.6 1.3-2.2 2.7 1.6c.5.3.9.6 1.2.9-.1-.4-.2-.9-.2-1.4v-3.3h2.7v4c0 .2-.1.5-.2.7l.5-.5c.2-.1.4-.3.6-.4l2.7-1.6 1.3 2.2-2.7 1.6c-.2.1-.5.3-.7.4-.2.1-.5.2-.7.2.5.1 1 .3 1.5.6l2.7 1.6-1.3 2.3-2.7-1.6c-.5-.3-.9-.6-1.2-.9.1.4.2.9.2 1.4v3.3h-2.7V92v-.8c0-.2.1-.5.2-.7l-.5.5c-.2.1-.4.3-.6.4L21.2 93l-1.3-2.2 2.6-1.7zm22.5-.8c-.2.1-.5.2-.7.2.5.1 1 .3 1.5.6l2.7 1.6-1.4 2.3-2.7-1.6c-.5-.3-.9-.6-1.2-.9.1.4.2.9.2 1.4v3.3h-2.7V92v-.8c0-.2.1-.5.2-.7l-.5.5c-.2.1-.4.3-.6.4L37 92.9l-1.3-2.2 2.7-1.6c.5-.3 1-.5 1.4-.6-.2 0-.5-.1-.7-.2-.2-.1-.5-.2-.7-.4l-2.7-1.6 1.3-2.2 2.7 1.6c.5.3.9.6 1.2.9-.1-.4-.2-.9-.2-1.4v-3.3h2.7v4c0 .2-.1.5-.2.7l.5-.5c.2-.1.4-.3.6-.4l2.7-1.6 1.3 2.2-2.7 1.6c-.1.2-.4.3-.6.4zm15.9 0c-.2.1-.5.2-.7.2.5.1 1 .3 1.5.6l2.7 1.6L63 93l-2.7-1.6c-.5-.3-.9-.6-1.2-.9.1.4.2.9.2 1.4v3.3h-2.7V92v-.8c0-.2.1-.5.2-.7l-.5.5c-.2.1-.4.3-.6.4L53 93l-1.3-2.2 2.7-1.6c.5-.3 1-.5 1.4-.6-.2 0-.5-.1-.7-.2-.2-.1-.5-.2-.7-.4l-2.7-1.6 1.3-2.2 2.7 1.6c.5.3.9.6 1.2.9-.1-.4-.2-.9-.2-1.4V82h2.7v4c0 .2-.1.5-.2.7l.5-.5c.2-.1.4-.3.6-.4l2.7-1.6 1.3 2.2-2.7 1.6c-.2.1-.5.2-.7.3zm15.9 0c-.2.1-.5.2-.7.2.5.1 1 .3 1.5.6l2.7 1.6-1.4 2.3-2.7-1.6c-.5-.3-.9-.6-1.2-.9.1.4.2.9.2 1.4v3.3h-2.7V92v-.8c0-.2.1-.5.2-.7l-.5.5c-.2.1-.4.3-.6.4L68.9 93l-1.3-2.2 2.7-1.6c.5-.3 1-.5 1.4-.6-.2 0-.5-.1-.7-.2-.2-.1-.5-.2-.7-.4l-2.7-1.6 1.3-2.2 2.7 1.6c.5.3.9.6 1.2.9-.1-.4-.2-.9-.2-1.4V82h2.7v4c0 .2-.1.5-.2.7l.5-.5c.2-.1.4-.3.6-.4l2.7-1.6 1.3 2.2-2.7 1.6c-.2.1-.5.2-.7.3z"/></svg>