<svg xmlns="http://www.w3.org/2000/svg" viewBox="0 0 100 125" class="icon icon-social-media" aria-role="img"><path d="M58.7 43.9h-2.4c-2.7 2.5-7 4.1-11.9 4.1s-9.2-1.6-11.9-4.1h-1.7c-8.7 0-15.7 5.3-15.7 11.9h58.6c0-6.6-6.7-11.9-15-11.9z"/><path d="M44.4 9.7c-9.7 0-17.6 7.9-17.6 17.6 0 9.7 7.9 17.6 17.6 17.6C54.1 44.9 62 37 62 27.3c0-9.7-7.9-17.6-17.6-17.6zm0 31.3c-7.5 0-13.7-6.1-13.7-13.7 0-1.2.2-2.3.4-3.3 1.6.8 4.5 1.9 7.8 1.9 2.4 0 5-.6 7.4-2.3.3-.2 6.3-4.5 11.1-.2.4 1.2.6 2.5.6 3.9.1 7.5-6 13.7-13.6 13.7zM85.8 96.9h-9.7c.6-.8 1-1.8 1-2.9V62.4c0-2.6-2.2-4.8-4.8-4.8H16.4c-2.6 0-4.8 2.2-4.8 4.8V94c0 1.1.4 2.1 1 2.9H1.7c-.5 0-.9.4-.9.9v.2c0 .5.4.9.9.9h84.1c.5 0 .9-.4.9-.9v-.1c0-.6-.4-1-.9-1zM44.4 83.4c-3 0-5.4-2.4-5.4-5.4 0-3 2.4-5.4 5.4-5.4 3 0 5.4 2.4 5.4 5.4 0 3-2.4 5.4-5.4 5.4zM98.5 13C96.3 4.4 87.5-.9 78.8 1.3S65 12.3 67.2 21c1 4.1 3.6 7.4 6.9 9.6L69.8 37l17.1-4.4c8.6-2.2 13.8-11 11.6-19.6zm-20.4 9.3h-2.8v-7.4h2.8v7.4zm10.5 0h-9.1v-7.5l4.2-4.5 1.8.3-1.3 3.9h6.2l-1.8 7.8z"/></svg>