<svg xmlns="http://www.w3.org/2000/svg" viewBox="0 0 100 125"><switch><g><path d="M63.4 81.6H27.5V29.3h21.1V18.2H27.9c-3.2 0-5.7 2.6-5.7 5.7v67.8c0 3.2 2.6 5.8 5.7 5.8h35.2c3.2 0 5.7-2.6 5.7-5.8V37.6h-5.4v44zm-18 11.7c-2.1 0-3.8-1.7-3.8-3.8s1.7-3.8 3.8-3.8c2.1 0 3.8 1.7 3.8 3.8s-1.7 3.8-3.8 3.8z"/><path d="M32.8 55.4c0 7 5.7 12.7 12.7 12.7s12.7-5.7 12.7-12.7c0-7-5.7-12.7-12.7-12.7s-12.7 5.7-12.7 12.7zm2.2 0c0-.7.1-1.5.2-2.2h3.4c-.1.7-.1 1.4-.1 2.2 0 .7 0 1.4.1 2.2h-3.4c-.1-.8-.2-1.5-.2-2.2zm1.1 4.4H39c.4 1.9.9 3.5 1.7 4.8-2-1-3.7-2.7-4.6-4.8zm2.9-8.9h-2.9c1-2 2.6-3.8 4.6-4.8-.8 1.3-1.3 3-1.7 4.8zm5.3 14.6c-1.2-.8-2.4-2.8-3-5.6h3v5.6zm0-7.9h-3.4c0-.7-.1-1.4-.1-2.2 0-.7 0-1.5.1-2.2h3.4v4.4zm0-6.7h-3c.6-2.8 1.8-4.8 3-5.6v5.6zm11.6 4.5c0 .7-.1 1.4-.2 2.2h-3.4c.1-.7.1-1.4.1-2.2 0-.7 0-1.5-.1-2.2h3.4c.1.7.2 1.4.2 2.2zm-1-4.5H52c-.4-1.9-.9-3.5-1.7-4.8 2 1.1 3.6 2.8 4.6 4.8zM52 59.8h2.9c-1 2-2.6 3.8-4.6 4.8.8-1.3 1.3-2.9 1.7-4.8zm-5.4-14.5c1.2.8 2.4 2.8 3 5.6h-3v-5.6zm0 7.9H50c0 .7.1 1.4.1 2.2 0 .7 0 1.5-.1 2.2h-3.4v-4.4zm0 6.6h3c-.6 2.8-1.8 4.8-3 5.6v-5.6zM76.3 15.1h-2.1v-4.2c0-4.7-3.8-8.4-8.4-8.4-4.7 0-8.4 3.8-8.4 8.4v4.2h-2.1c-.8 0-1.5.7-1.5 1.5V31c0 .8.7 1.5 1.5 1.5h21.1c.8 0 1.5-.7 1.5-1.5V16.6c-.1-.8-.7-1.5-1.6-1.5zm-9.4 9.3l.7 2.7c.1.5-.2.9-.7.9h-2.2c-.5 0-.8-.5-.7-.9l.7-2.7c-.8-.4-1.4-1.3-1.4-2.3 0-1.4 1.1-2.6 2.6-2.6 1.4 0 2.6 1.1 2.6 2.6-.2 1-.7 1.9-1.6 2.3zm3.1-9.3h-8.5v-4.2c0-2.3 1.9-4.2 4.2-4.2 2.3 0 4.2 1.9 4.2 4.2v4.2z"/></g></switch></svg>