<svg xmlns="http://www.w3.org/2000/svg" viewBox="0 0 100 125"><path d="M91.8 83.6H57c-.2 0-.4.2-.4.4v1.4c0 .9-.7 1.6-1.6 1.6H40c-.9 0-1.6-.7-1.6-1.6V84c0-.2-.2-.4-.4-.4H3.1c-.3 0-.6.2-.6.6v5.7c0 2.8 2.2 5 5 5h79.9c2.8 0 5-2.2 5-5v-5.7c0-.3-.3-.6-.6-.6zm-78-4.2h67.3c2.4 0 4.4-2 4.4-4.4V43.5h-8.8v27.2H18.2V33c0-.5.4-.9.9-.9h46.4v-8.8H19c-5.3 0-9.6 4.3-9.6 9.6v42c0 2.6 2 4.5 4.4 4.5z"/><path d="M33.5 51.4c0 7.7 6.2 13.9 13.9 13.9 3.8 0 7.3-1.6 9.8-4.1 2.5-2.5 4.1-6 4.1-9.8 0-7.6-6.2-13.9-13.9-13.9-7.6 0-13.9 6.3-13.9 13.9zm2.6 0c0-.8.1-1.6.2-2.3H40c0 .8-.1 1.5-.1 2.3 0 .8 0 1.6.1 2.4h-3.7c-.2-.7-.2-1.6-.2-2.4zm1 4.9h3.2c.4 2 1.1 3.8 1.9 5.3-2.2-1.2-4-3-5.1-5.3zm3.2-9.7h-3.2c1.1-2.2 2.9-4.1 5.1-5.3-.8 1.5-1.5 3.3-1.9 5.3zm5.9 15.8c-1.3-.9-2.7-3.1-3.3-6.1h3.3v6.1zm0-8.6h-3.7c0-.8-.1-1.5-.1-2.4 0-.8 0-1.6.1-2.3h3.7v4.7zm0-7.2h-3.3c.7-3.1 2-5.3 3.3-6.1v6.1zm12.7 4.8c0 .8-.1 1.6-.3 2.4h-3.7c.1-.8.1-1.6.1-2.4 0-.8 0-1.6-.1-2.3h3.7c.2.8.3 1.5.3 2.3zm-1.1-4.8h-3.2c-.4-2-1-3.8-1.9-5.3 2.2 1.2 4 3 5.1 5.3zm-3.2 9.7h3.2c-1.1 2.2-2.8 4.1-5.1 5.3.8-1.4 1.5-3.2 1.9-5.3zm-5.9-15.8c1.3.9 2.6 3.1 3.3 6.1h-3.3v-6.1zm0 8.6h3.7c.1.8.1 1.5.1 2.3 0 .9 0 1.6-.1 2.4h-3.7v-4.7zm0 7.2H52c-.7 3.1-1.9 5.3-3.3 6.1v-6.1zm47.2-37.7h-2.3v-4.5c0-5-4.1-9-9-9-5 0-9 4.1-9 9v4.5h-2.3c-.9 0-1.6.7-1.6 1.6v15.4c0 .9.7 1.6 1.6 1.6h22.6c.9 0 1.6-.7 1.6-1.6V20.2c0-.9-.7-1.6-1.6-1.6zm-10.1 9.9l.7 2.9c.1.5-.3 1-.8 1h-2.4c-.5 0-.9-.5-.8-1l.7-2.9c-.9-.5-1.5-1.4-1.5-2.4 0-1.5 1.2-2.7 2.7-2.7 1.5 0 2.7 1.2 2.7 2.7.2 1.1-.4 2-1.3 2.4zm3.3-9.9H80v-4.5c0-2.5 2-4.5 4.5-4.5s4.5 2 4.5 4.5v4.5z"/></svg>